# xmcd
#
# Track frame offsets: 
#        150
#        17894
#        29357
#        49232
#        60524
#        75549
#        87088
#        100684
#        112355
#        125874
#        135732
#        144128
#        159423
#
# Disc length: 2407 seconds
#
# Revision: 2
# Processed by: cddbd v1.5.2PL0 Copyright (c) Steve Scherf et al.
# Submitted via: ExactAudioCopyFreeDBPlugin 1.0
#
DISCID=ab09650d
DTITLE=Small Town Pimps - Pimplyfied
DYEAR=1997
DGENRE=Rock and Roll
TTITLE0=Zombie King
TTITLE1=Zombie Stroll
TTITLE2=I'm A Small Town Pimp
TTITLE3=Voodoo Woman
TTITLE4=Hitchcock Hillbillys
TTITLE5=Please Please Waiter
TTITLE6=Freaky Little Horny Nurses
TTITLE7=Mean Mad Zombie
TTITLE8=Blow Job Bonnie
TTITLE9=Dead Girls Don't Feel A Thing
TTITLE10=Trapdoor Willie
TTITLE11=Black Coffee
TTITLE12=Under A Tombstone
EXTD=
EXTT0=
EXTT1=
EXTT2=
EXTT3=
EXTT4=
EXTT5=
EXTT6=
EXTT7=
EXTT8=
EXTT9=
EXTT10=
EXTT11=
EXTT12=
PLAYORDER=
